<?xml version="1.0" encoding="UTF-8"?>
<svg xmlns="http://www.w3.org/2000/svg" xmlns:xlink="http://www.w3.org/1999/xlink" viewBox="0 0 48 48" width="48px" height="48px">
<g id="surface118537">
<path style=" stroke:none;fill-rule:nonzero;fill:#4e3635;fill-opacity:1;" d="M 42.164062 17.125 L 30.875 5.835938 C 27.09375 2.054688 20.90625 2.054688 17.125 5.835938 L 5.835938 17.125 C 2.054688 20.90625 2.054688 27.09375 5.835938 30.875 L 17.128906 42.164062 C 20.90625 45.945312 27.09375 45.945312 30.875 42.164062 L 42.164062 30.875 C 45.945312 27.09375 45.945312 20.90625 42.164062 17.125 Z M 24 31 C 20.132812 31 17 27.867188 17 24 C 17 20.132812 20.132812 17 24 17 C 27.867188 17 31 20.132812 31 24 C 31 27.867188 27.867188 31 24 31 Z M 24 31 "/>
</g>
</svg>
