<svg xmlns="http://www.w3.org/2000/svg" xmlns:xlink="http://www.w3.org/1999/xlink" width="150" viewBox="0 0 283.5 283.500005" height="150" preserveAspectRatio="xMidYMid meet" version="1.0"><defs><g/><clipPath id="id1"><path d="M 47.542969 47.542969 L 235.792969 47.542969 L 235.792969 235.792969 L 47.542969 235.792969 Z M 47.542969 47.542969 " clip-rule="nonzero"/></clipPath></defs><g clip-path="url(#id1)"><path fill="rgb(58.039856%, 41.569519%, 41.958618%)" d="M 141.660156 235.773438 C 116.519531 235.773438 92.882812 225.984375 75.105469 208.207031 C 57.332031 190.433594 47.542969 166.796875 47.542969 141.660156 C 47.542969 116.519531 57.332031 92.882812 75.105469 75.105469 C 92.882812 57.332031 116.519531 47.542969 141.660156 47.542969 C 166.796875 47.542969 190.433594 57.332031 208.207031 75.105469 C 225.984375 92.882812 235.773438 116.519531 235.773438 141.660156 C 235.773438 166.796875 225.984375 190.433594 208.207031 208.207031 C 190.433594 225.984375 166.796875 235.773438 141.660156 235.773438 Z M 141.660156 48.316406 C 116.726562 48.316406 93.285156 58.023438 75.65625 75.65625 C 58.023438 93.285156 48.316406 116.726562 48.316406 141.660156 C 48.316406 166.589844 58.023438 190.03125 75.65625 207.660156 C 93.285156 225.292969 116.726562 235 141.660156 235 C 166.589844 235 190.03125 225.292969 207.660156 207.660156 C 225.292969 190.03125 235 166.589844 235 141.660156 C 235 116.726562 225.292969 93.285156 207.660156 75.65625 C 190.03125 58.023438 166.589844 48.316406 141.660156 48.316406 Z M 141.660156 48.316406 " fill-opacity="1" fill-rule="nonzero"/></g><path fill="rgb(58.039856%, 41.569519%, 41.958618%)" d="M 141.660156 203.582031 C 107.511719 203.582031 79.734375 175.804688 79.734375 141.660156 C 79.734375 107.511719 107.511719 79.734375 141.660156 79.734375 C 175.804688 79.734375 203.582031 107.511719 203.582031 141.660156 C 203.582031 175.804688 175.804688 203.582031 141.660156 203.582031 Z M 141.660156 80.507812 C 107.941406 80.507812 80.507812 107.941406 80.507812 141.660156 C 80.507812 175.375 107.941406 202.808594 141.660156 202.808594 C 175.375 202.808594 202.808594 175.375 202.808594 141.660156 C 202.808594 107.941406 175.375 80.507812 141.660156 80.507812 Z M 141.660156 80.507812 " fill-opacity="1" fill-rule="nonzero"/><path fill="rgb(58.039856%, 41.569519%, 41.958618%)" d="M 65.898438 141.660156 C 65.898438 142.890625 64.898438 143.890625 63.667969 143.890625 C 62.433594 143.890625 61.4375 142.890625 61.4375 141.660156 C 61.4375 140.425781 62.433594 139.425781 63.667969 139.425781 C 64.898438 139.425781 65.898438 140.425781 65.898438 141.660156 Z M 219.648438 139.425781 C 218.417969 139.425781 217.417969 140.425781 217.417969 141.660156 C 217.417969 142.890625 218.417969 143.890625 219.648438 143.890625 C 220.882812 143.890625 221.878906 142.890625 221.878906 141.660156 C 221.878906 140.425781 220.882812 139.425781 219.648438 139.425781 Z M 219.648438 139.425781 " fill-opacity="1" fill-rule="nonzero"/><g fill="rgb(58.039856%, 41.569519%, 41.958618%)" fill-opacity="1"><g transform="translate(93.318164, 155.572387)"><g><path d="M 36.789062 -8.410156 C 38.203125 -4.007812 38.28125 -0.707031 37.730469 -0.707031 L 37.730469 0 L 46.925781 0 L 46.925781 -0.707031 C 45.75 -0.707031 43.785156 -5.503906 41.738281 -11.398438 L 26.726562 -55.179688 L 20.75 -55.179688 L 22.246094 -50.859375 L 8.253906 -9.902344 C 5.816406 -2.828125 3.539062 -0.707031 2.359375 -0.707031 L 2.359375 0 L 9.039062 0 L 9.039062 -0.707031 C 6.996094 -0.707031 6.839844 -3.695312 8.960938 -9.667969 L 12.8125 -21.144531 C 13.914062 -24.210938 17.84375 -24.917969 20.671875 -24.683594 C 28.375 -23.894531 33.800781 -17.214844 36.160156 -10.296875 Z M 22.636719 -49.757812 L 34.195312 -16.113281 C 31.207031 -20.910156 26.570312 -24.761719 20.671875 -25.3125 C 18.394531 -25.546875 15.484375 -25.152344 13.675781 -23.503906 Z M 22.636719 -49.757812 "/></g></g></g><g fill="rgb(58.039856%, 41.569519%, 41.958618%)" fill-opacity="1"><g transform="translate(143.028512, 184.502498)"><g><path d="M 39.316406 -41.246094 C 42.460938 -47.679688 44.320312 -49.609375 45.390625 -49.609375 L 45.390625 -50.253906 C 43.320312 -50.253906 41.316406 -50.253906 39.242188 -50.253906 L 39.242188 -49.609375 C 42.53125 -49.609375 39.886719 -43.960938 39.316406 -42.675781 L 27.519531 -18.585938 L 14.226562 -43.246094 C 12.296875 -47.105469 12.222656 -49.609375 12.796875 -49.609375 L 12.796875 -50.253906 C 9.292969 -50.253906 5.71875 -50.253906 2.144531 -50.253906 L 2.144531 -49.609375 C 3.929688 -49.609375 6.648438 -45.105469 9.9375 -40.386719 L 22.804688 -16.582031 L 22.804688 -6.148438 C 22.804688 -1.429688 21.585938 -0.644531 21.160156 -0.644531 L 21.160156 0 L 29.523438 0 L 29.523438 -0.644531 C 29.09375 -0.644531 27.878906 -1.429688 27.878906 -6.148438 L 27.878906 -17.871094 Z M 39.316406 -41.246094 "/></g></g></g></svg>